<svg width="458" height="244" viewBox="0 0 458 244" fill="none" xmlns="http://www.w3.org/2000/svg">
<g clip-path="url(#clip0_169_1334)">
<rect width="244" height="458" transform="matrix(0 1 -1 0 458 0)" fill="#403D91"/>
<path d="M0.820312 228H70.3203M0.820312 228V244M0.820312 228L0.662665 161M70.3203 228V244M70.3203 228C87.4365 222.009 119.46 198.172 134.572 163M70.3203 15.5C68.3203 15.1 22.8203 15.3333 0.320312 15.5M70.3203 15.5V0.5M70.3203 15.5C71.2355 15.683 80.8613 19.4173 92.8203 27.8803M0.320312 15.5V0.5M0.320312 15.5L0.479136 83M92.8203 215.12V161M92.8203 27.8803V83M92.8203 27.8803C107.206 38.0608 124.969 55.0842 135.006 81M92.8203 161H0.662665M92.8203 161V83M0.662665 161L0.479136 83M92.8203 83H0.479136M134.572 163C140.061 150.225 143.319 135.954 142.82 120.5C142.336 105.499 139.417 92.3908 135.006 81M134.572 163H228.82V81H135.006M18.8203 135.5V108.5" stroke="black"/>
<path d="M18.3203 142C27.1536 142.834 44.8203 140 44.8203 122C44.8203 104 27.1536 101.167 18.3203 102" stroke="black"/>
<path d="M229 244L0.320312 243.5L-0.179688 0H228.82L229 244Z" stroke="black"/>
<path d="M93.8203 95C108.162 95 119.82 107.071 119.82 122C119.82 136.929 108.162 149 93.8203 149C79.4782 149 67.8203 136.929 67.8203 122C67.8203 107.071 79.4782 95 93.8203 95Z" stroke="black"/>
<circle cx="24.8203" cy="122" r="4" transform="rotate(-90 24.8203 122)" stroke="black"/>
<path d="M20.8203 122H18.8203" stroke="black"/>
<path d="M457 16H387.5M457 16V0M457 16L457.158 83M387.5 16V0M387.5 16C370.384 21.9907 338.36 45.8283 323.248 81M387.5 228.5C389.5 228.9 435 228.667 457.5 228.5M387.5 228.5V243.5M387.5 228.5C386.585 228.317 376.959 224.583 365 216.12M457.5 228.5V243.5M457.5 228.5L457.341 161M365 28.8803V83M365 216.12V161M365 216.12C350.614 205.939 332.851 188.916 322.814 163M365 83H457.158M365 83V161M457.158 83L457.341 161M365 161H457.341M323.248 81C317.759 93.7754 314.501 108.046 315 123.5C315.484 138.501 318.403 151.609 322.814 163M323.248 81H229V163H322.814M439 108.5V135.5" stroke="black"/>
<path d="M439.5 102C430.667 101.166 413 104 413 122C413 140 430.667 142.833 439.5 142" stroke="black"/>
<path d="M228.821 0L457.5 0.5L458 244H229L228.821 0Z" stroke="black"/>
<path d="M364 149C349.658 149 338 136.929 338 122C338 107.071 349.658 95 364 95C378.342 95 390 107.071 390 122C390 136.929 378.342 149 364 149Z" stroke="black"/>
<circle cx="433" cy="122" r="4" transform="rotate(90 433 122)" stroke="black"/>
<path d="M437 122H439" stroke="black"/>
</g>
<defs>
<clipPath id="clip0_169_1334">
<rect width="244" height="458" fill="white" transform="matrix(0 1 -1 0 458 0)"/>
</clipPath>
</defs>
</svg>
