<svg width="244" height="458" viewBox="0 0 244 458" fill="none" xmlns="http://www.w3.org/2000/svg">
<g clip-path="url(#clip0_169_1334)">
<rect width="244" height="458" fill="#403D91"/>
<path d="M228 457.179V387.679M228 457.179H244M228 457.179L161 457.337M228 387.679H244M228 387.679C222.009 370.563 198.172 338.539 163 323.427M15.5 387.679C15.1 389.679 15.3333 435.179 15.5 457.679M15.5 387.679H0.5M15.5 387.679C15.683 386.764 19.4173 377.138 27.8803 365.179M15.5 457.679H0.5M15.5 457.679L83 457.52M215.12 365.179H161M27.8803 365.179H83M27.8803 365.179C38.0608 350.793 55.0842 333.031 81 322.994M161 365.179V457.337M161 365.179H83M161 457.337L83 457.52M83 365.179V457.52M163 323.427C150.225 317.938 135.954 314.681 120.5 315.179C105.499 315.663 92.3908 318.582 81 322.994M163 323.427V229.179H81V322.994M135.5 439.179H108.5" stroke="black"/>
<path d="M142 439.679C142.834 430.846 140 413.179 122 413.179C104 413.179 101.167 430.846 102 439.679" stroke="black"/>
<path d="M244 229L243.5 457.679L0 458.179V229.179L244 229Z" stroke="black"/>
<path d="M95 364.179C95 349.837 107.071 338.179 122 338.179C136.929 338.179 149 349.837 149 364.179C149 378.521 136.929 390.179 122 390.179C107.071 390.179 95 378.521 95 364.179Z" stroke="black"/>
<circle cx="122" cy="433.179" r="4" transform="rotate(180 122 433.179)" stroke="black"/>
<path d="M122 437.179V439.179" stroke="black"/>
<path d="M16 1V70.5M16 1H0M16 1L83 0.842353M16 70.5H0M16 70.5C21.9907 87.6162 45.8283 119.64 81 134.752M228.5 70.5C228.9 68.5 228.667 23 228.5 0.5M228.5 70.5H243.5M228.5 70.5C228.317 71.4152 224.583 81.041 216.12 93M228.5 0.5H243.5M228.5 0.5L161 0.658824M28.8803 93H83M216.12 93H161M216.12 93C205.939 107.386 188.916 125.149 163 135.186M83 93V0.842353M83 93H161M83 0.842353L161 0.658824M161 93V0.658824M81 134.752C93.7754 140.241 108.046 143.499 123.5 143C138.501 142.516 151.609 139.597 163 135.186M81 134.752V229H163V135.186M108.5 19H135.5" stroke="black"/>
<path d="M102 18.5C101.166 27.3333 104 45 122 45C140 45 142.833 27.3333 142 18.5" stroke="black"/>
<path d="M0 229.179L0.5 0.5L244 0V229L0 229.179Z" stroke="black"/>
<path d="M149 94C149 108.342 136.929 120 122 120C107.071 120 95 108.342 95 94C95 79.6579 107.071 68 122 68C136.929 68 149 79.6579 149 94Z" stroke="black"/>
<circle cx="122" cy="25" r="4" stroke="black"/>
<path d="M122 21V19" stroke="black"/>
</g>
<defs>
<clipPath id="clip0_169_1334">
<rect width="244" height="458" fill="white"/>
</clipPath>
</defs>
</svg>
