<svg width="244" height="229" viewBox="0 0 244 229" fill="none" xmlns="http://www.w3.org/2000/svg">
<g clip-path="url(#clip0_169_1334)">
<rect width="244" height="229" fill="#403D91"/>
<path d="M16 1V70.5M16 1H0M16 1L83 0.842353M16 70.5H0M16 70.5C21.9907 87.6162 45.8283 119.64 81 134.752M228.5 70.5C228.9 68.5 228.667 23 228.5 0.5M228.5 70.5H243.5M228.5 70.5C228.317 71.4152 224.583 81.041 216.12 93M228.5 0.5H243.5M228.5 0.5L161 0.658824M28.8803 93H83M216.12 93H161M216.12 93C205.939 107.386 188.916 125.149 163 135.186M83 93V0.842353M83 93H161M83 0.842353L161 0.658824M161 93V0.658824M81 134.752C93.7754 140.241 108.046 143.499 123.5 143C138.501 142.516 151.609 139.597 163 135.186M81 134.752V229.5L163 229V135.186M108.5 19H135.5" stroke="black"/>
<path d="M102 18.5C101.166 27.3333 104 45 122 45C140 45 142.833 27.3333 142 18.5" stroke="black"/>
<path d="M0 229.179L0.5 0.5L244 0V229L0 229.179Z" stroke="black"/>
<path d="M149 94C149 108.342 136.929 120 122 120C107.071 120 95 108.342 95 94C95 79.6579 107.071 68 122 68C136.929 68 149 79.6579 149 94Z" stroke="black"/>
<circle cx="122" cy="25" r="4" stroke="black"/>
<path d="M122 21V19" stroke="black"/>
</g>
<defs>
<clipPath id="clip0_169_1334">
<rect width="244" height="229" fill="white"/>
</clipPath>
</defs>
</svg>
